<svg width="512" height="512" viewBox="0 0 512 512" fill="none" xmlns="http://www.w3.org/2000/svg">
<mask id="mask0_1102_17176" style="mask-type:alpha" maskUnits="userSpaceOnUse" x="0" y="0" width="512" height="512">
<circle cx="256" cy="256" r="256" fill="#D9D9D9"/>
</mask>
<g mask="url(#mask0_1102_17176)">
<mask id="mask1_1102_17176" style="mask-type:luminance" maskUnits="userSpaceOnUse" x="0" y="75" width="438" height="438">
<path d="M75.0194 75C-24.9548 174.974 -24.9548 337.064 75.0194 437.039C174.994 537.013 337.084 537.013 437.058 437.039L75.0194 75Z" fill="white"/>
</mask>
<g mask="url(#mask1_1102_17176)">
<path d="M0 256L258 216.6L512 256V512H0V256Z" fill="#FFDA44"/>
<path d="M0 0H512V256H0V0Z" fill="#338AF3"/>
</g>
<mask id="mask2_1102_17176" style="mask-type:luminance" maskUnits="userSpaceOnUse" x="75" y="0" width="438" height="438">
<path d="M437.039 437.058C537.013 337.084 537.013 174.994 437.039 75.0193C337.064 -24.9549 174.974 -24.9549 75 75.0193L437.039 437.058Z" fill="white"/>
</mask>
<g mask="url(#mask2_1102_17176)">
<path d="M0 0L8 22L0 45V68L32 122L0 176V208L32 256L0 304V336L32 390L0 444V512L22 504L45 512H68L122 480L176 512H208L256 480L304 512H336L390 480L444 512H512L504 490L512 467V444L480 390L512 336V304L480 256L512 208V176L480 122L512 68V0L490 8L467 0H444L390 32L336 0H304L256 32L208 0H176L122 32L68 0H0Z" fill="#EEEEEE"/>
<path d="M336 0V108L444 0H336ZM512 68L404 176H512V68ZM0 176H108L0 68V176ZM68 0L176 108V0H68ZM176 512V404L68 512H176ZM0 444L108 336H0V444ZM512 336H404L512 444V336ZM444 512L336 404V512H444Z" fill="#0052B4"/>
<path d="M0 0V45L131 176H176L0 0ZM208 0V208H0V304H208V512H304V304H512V208H304V0H208ZM467 0L336 131V176L512 0H467ZM176 336L0 512H45L176 381V336ZM336 336L512 512V467L381 336H336Z" fill="#D80027"/>
</g>
</g>
</svg>
